<?xml version="1.0" standalone="no"?>
<!DOCTYPE svg PUBLIC "-//W3C//DTD SVG 20010904//EN"
        "http://www.w3.org/TR/2001/REC-SVG-20010904/DTD/svg10.dtd">
<svg version="1.0" xmlns="http://www.w3.org/2000/svg"
     width="138.000000pt" height="138.000000pt" viewBox="0 0 138.000000 138.000000"
     preserveAspectRatio="xMidYMid meet">
    <metadata>
        Created by potrace 1.11, written by Peter Selinger 2001-2013
    </metadata>
    <g transform="translate(0.000000,138.000000) scale(0.100000,-0.100000)"
       fill="#000000" stroke="none">
        <path d="M0 705 c0 -461 1 -505 16 -505 33 0 225 61 296 93 145 67 272 170
348 282 18 28 34 52 36 54 2 2 72 -44 156 -101 84 -58 237 -162 341 -232 l187
-127 0 505 0 506 -52 -6 c-291 -29 -521 -156 -633 -351 -15 -26 -30 -50 -32
-52 -3 -4 -185 115 -218 142 -17 13 -409 278 -427 288 -17 9 -18 -17 -18 -496z
m1290 3 l0 -369 -152 104 c-84 57 -208 141 -275 186 -68 45 -123 86 -123 90 0
30 147 211 171 211 4 0 7 -44 6 -98 0 -54 3 -104 7 -110 4 -7 25 -21 46 -32
l38 -19 1 122 c0 67 0 140 1 163 0 38 3 42 40 59 22 10 43 15 46 12 4 -3 7
-100 7 -215 l0 -209 43 -22 44 -21 1 33 c0 17 0 130 0 250 l1 217 26 6 c15 3
32 7 37 8 35 9 35 10 35 -366z m-1171 318 c9 -7 72 -51 141 -98 69 -47 177
-120 240 -163 63 -43 116 -79 118 -80 12 -10 -138 -195 -158 -195 -4 0 -8 42
-8 93 -1 50 -1 97 -2 103 0 10 -61 44 -80 44 -5 0 -8 -62 -8 -137 0 -76 0
-146 -1 -156 -1 -15 -54 -57 -73 -57 -5 0 -8 96 -8 213 l0 212 -45 21 -45 22
-2 -256 -3 -256 -44 -13 c-25 -7 -46 -11 -48 -9 -3 3 -5 473 -3 679 0 50 4 55
29 33z"/>
    </g>
</svg>
